<?xml version="1.0" standalone="no"?>
<!DOCTYPE svg PUBLIC "-//W3C//DTD SVG 20010904//EN"
 "http://www.w3.org/TR/2001/REC-SVG-20010904/DTD/svg10.dtd">
<svg version="1.0" xmlns="http://www.w3.org/2000/svg"
 width="400.000000pt" height="400.000000pt" viewBox="0 0 400.000000 400.000000"
 preserveAspectRatio="xMidYMid meet">
<metadata>
Created by potrace 1.15, written by Peter Selinger 2001-2017
</metadata>
<g transform="translate(0.000000,400.000000) scale(0.100000,-0.100000)"
fill="#000000" stroke="none">
<path d="M1715 3989 c-16 -4 -80 -17 -141 -29 l-110 -22 10 -49 c27 -132 -74
-265 -214 -284 -84 -11 -185 37 -231 111 l-20 34 -120 -80 c-65 -44 -119 -81
-119 -83 0 -1 14 -29 30 -61 53 -105 38 -202 -44 -282 -84 -81 -194 -96 -291
-39 -24 14 -46 25 -48 25 -3 0 -41 -54 -86 -120 l-80 -120 27 -14 c89 -46 140
-171 113 -273 -16 -57 -68 -123 -121 -153 -35 -19 -59 -25 -110 -25 -36 1 -71
3 -79 5 -11 4 -21 -25 -42 -125 -35 -164 -35 -165 -4 -165 65 0 148 -60 188
-135 29 -55 29 -155 0 -210 -40 -75 -123 -135 -188 -135 -31 0 -31 -1 4 -165
21 -100 31 -129 42 -125 8 2 43 4 79 5 51 0 75 -6 110 -25 53 -30 105 -96 121
-153 27 -102 -24 -227 -113 -273 l-28 -14 82 -124 82 -123 46 29 c98 61 210
47 296 -36 82 -80 97 -177 44 -282 -16 -32 -30 -60 -30 -61 0 -2 54 -38 119
-82 l119 -80 25 37 c32 49 90 88 150 102 167 37 325 -115 291 -280 -6 -27 -8
-50 -5 -50 3 0 68 -13 144 -28 l137 -29 6 26 c20 93 66 156 137 190 94 45 232
16 291 -62 32 -42 56 -99 56 -132 0 -21 4 -25 18 -21 14 5 260 56 267 56 1 0
0 31 -3 68 -10 153 92 265 243 265 42 0 73 -6 101 -21 39 -20 107 -86 116
-112 3 -9 43 13 119 64 62 43 118 82 122 86 5 4 -3 24 -17 44 -106 157 13 376
205 376 43 0 94 -16 131 -42 14 -10 30 -18 36 -18 5 0 44 53 86 117 l77 117
-28 21 c-77 55 -112 121 -113 208 0 139 101 241 240 241 36 0 71 -2 79 -4 10
-4 20 29 42 135 15 77 28 143 28 148 1 4 -14 7 -32 7 -51 0 -136 56 -172 114
-27 44 -30 58 -30 126 0 68 3 82 30 126 36 58 121 114 172 114 18 0 33 3 32 8
0 4 -13 70 -28 147 -21 104 -32 139 -42 136 -87 -24 -174 -3 -242 58 -53 48
-77 101 -77 176 0 90 31 145 118 212 l23 18 -76 115 c-42 63 -81 117 -86 119
-6 1 -18 -4 -28 -13 -26 -23 -98 -46 -145 -46 -131 2 -238 109 -238 239 0 58
20 121 49 153 20 22 25 17 -117 113 -74 50 -116 73 -118 65 -9 -25 -76 -92
-111 -110 -124 -62 -276 -7 -331 122 -18 43 -22 65 -18 120 3 37 4 68 3 68 -7
0 -253 51 -267 56 -14 4 -18 -1 -18 -23 0 -36 -29 -99 -63 -139 -61 -72 -194
-97 -284 -53 -54 26 -110 91 -124 144 -19 71 -21 73 -54 64z m-156 -809 c156
-29 275 -151 310 -318 6 -29 11 -147 11 -262 l0 -210 -160 0 -160 0 0 211 0
211 -34 34 c-24 24 -43 34 -66 34 -40 0 -85 -26 -99 -57 -17 -37 -15 -1609 2
-1643 7 -14 29 -33 50 -43 48 -24 100 -9 128 37 17 28 19 52 19 254 l0 222
-55 0 -55 0 0 145 0 145 215 0 215 0 0 -374 c0 -212 -4 -397 -10 -427 -39
-204 -196 -329 -415 -329 -210 0 -359 112 -410 307 -22 84 -22 1663 0 1767 25
116 94 209 195 262 75 39 215 54 319 34z m1095 -32 c3 -13 17 -111 30 -218 23
-175 75 -572 197 -1490 22 -168 49 -369 60 -447 10 -79 19 -147 19 -153 0 -16
-329 -13 -335 3 -3 6 -18 122 -35 257 -17 135 -33 257 -36 273 l-6 27 -92 0
-92 0 -33 -267 c-18 -148 -35 -276 -38 -285 -4 -16 -21 -18 -167 -18 -89 0
-165 2 -167 5 -3 2 30 271 73 597 43 326 100 766 128 978 28 212 60 455 71
540 11 85 22 170 25 188 l6 32 194 0 c193 0 194 0 198 -22z"/>
<path d="M2445 2014 c-6 -1 -22 -5 -37 -8 -34 -8 -84 -50 -104 -88 -20 -38
-20 -117 -1 -154 39 -75 122 -114 197 -94 52 14 106 61 121 107 25 78 -10 180
-74 215 -23 12 -86 26 -102 22z"/>
</g>
</svg>
